<svg id="visual" viewBox="0 0 900 600" width="900" height="600" xmlns="http://www.w3.org/2000/svg" xmlns:xlink="http://www.w3.org/1999/xlink" version="1.1"><rect x="0" y="0" width="900" height="600" fill="#FFFFFF"></rect><path d="M0 169L21.5 167.2C43 165.3 86 161.7 128.8 161.2C171.7 160.7 214.3 163.3 257.2 175.7C300 188 343 210 385.8 208.2C428.7 206.3 471.3 180.7 514.2 178.7C557 176.7 600 198.3 642.8 200.2C685.7 202 728.3 184 771.2 180.2C814 176.3 857 186.7 878.5 191.8L900 197L900 0L878.5 0C857 0 814 0 771.2 0C728.3 0 685.7 0 642.8 0C600 0 557 0 514.2 0C471.3 0 428.7 0 385.8 0C343 0 300 0 257.2 0C214.3 0 171.7 0 128.8 0C86 0 43 0 21.5 0L0 0Z" fill="#eaffd0"></path><path d="M0 197L21.5 189.5C43 182 86 167 128.8 167.3C171.7 167.7 214.3 183.3 257.2 184.3C300 185.3 343 171.7 385.8 165.2C428.7 158.7 471.3 159.3 514.2 160.7C557 162 600 164 642.8 160.7C685.7 157.3 728.3 148.7 771.2 142.5C814 136.3 857 132.7 878.5 130.8L900 129L900 0L878.5 0C857 0 814 0 771.2 0C728.3 0 685.7 0 642.8 0C600 0 557 0 514.2 0C471.3 0 428.7 0 385.8 0C343 0 300 0 257.2 0C214.3 0 171.7 0 128.8 0C86 0 43 0 21.5 0L0 0Z" fill="#d4f8cf"></path><path d="M0 155L21.5 151C43 147 86 139 128.8 131.8C171.7 124.7 214.3 118.3 257.2 122.7C300 127 343 142 385.8 137.8C428.7 133.7 471.3 110.3 514.2 108C557 105.7 600 124.3 642.8 134.5C685.7 144.7 728.3 146.3 771.2 146.8C814 147.3 857 146.7 878.5 146.3L900 146L900 0L878.5 0C857 0 814 0 771.2 0C728.3 0 685.7 0 642.8 0C600 0 557 0 514.2 0C471.3 0 428.7 0 385.8 0C343 0 300 0 257.2 0C214.3 0 171.7 0 128.8 0C86 0 43 0 21.5 0L0 0Z" fill="#bef1cf"></path><path d="M0 70L21.5 67.8C43 65.7 86 61.3 128.8 59.7C171.7 58 214.3 59 257.2 58.8C300 58.7 343 57.3 385.8 60.8C428.7 64.3 471.3 72.7 514.2 74.3C557 76 600 71 642.8 67.2C685.7 63.3 728.3 60.7 771.2 62.7C814 64.7 857 71.3 878.5 74.7L900 78L900 0L878.5 0C857 0 814 0 771.2 0C728.3 0 685.7 0 642.8 0C600 0 557 0 514.2 0C471.3 0 428.7 0 385.8 0C343 0 300 0 257.2 0C214.3 0 171.7 0 128.8 0C86 0 43 0 21.5 0L0 0Z" fill="#a9e9d0"></path><path d="M0 61L21.5 58.8C43 56.7 86 52.3 128.8 50.8C171.7 49.3 214.3 50.7 257.2 52.2C300 53.7 343 55.3 385.8 56.7C428.7 58 471.3 59 514.2 53.5C557 48 600 36 642.8 34.5C685.7 33 728.3 42 771.2 43C814 44 857 37 878.5 33.5L900 30L900 0L878.5 0C857 0 814 0 771.2 0C728.3 0 685.7 0 642.8 0C600 0 557 0 514.2 0C471.3 0 428.7 0 385.8 0C343 0 300 0 257.2 0C214.3 0 171.7 0 128.8 0C86 0 43 0 21.5 0L0 0Z" fill="#95e1d3"></path></svg>